# Luxury Equestrian Stable — validated geometry export (metres)
# Generated from design/scripts/model.py. Do not hand-edit; regenerate.
mtllib stable_scene.mtl

v 0.0000 0.0000 -0.0200
v 40.0000 0.0000 -0.0200
v 40.0000 50.0000 -0.0200
v 0.0000 50.0000 -0.0200
v 0.0600 15.3000 0.0000
v 3.6900 15.3000 0.0000
v 3.6900 18.9300 0.0000
v 0.0600 18.9300 0.0000
v 0.0600 15.3000 3.0000
v 3.6900 15.3000 3.0000
v 3.6900 18.9300 3.0000
v 0.0600 18.9300 3.0000
v 3.8100 15.3000 0.0000
v 7.4400 15.3000 0.0000
v 7.4400 18.9300 0.0000
v 3.8100 18.9300 0.0000
v 3.8100 15.3000 3.0000
v 7.4400 15.3000 3.0000
v 7.4400 18.9300 3.0000
v 3.8100 18.9300 3.0000
v 7.5600 15.3000 0.0000
v 11.1900 15.3000 0.0000
v 11.1900 18.9300 0.0000
v 7.5600 18.9300 0.0000
v 7.5600 15.3000 3.0000
v 11.1900 15.3000 3.0000
v 11.1900 18.9300 3.0000
v 7.5600 18.9300 3.0000
v 11.3100 15.3000 0.0000
v 14.9400 15.3000 0.0000
v 14.9400 18.9300 0.0000
v 11.3100 18.9300 0.0000
v 11.3100 15.3000 3.0000
v 14.9400 15.3000 3.0000
v 14.9400 18.9300 3.0000
v 11.3100 18.9300 3.0000
v 15.0600 15.3000 0.0000
v 18.6900 15.3000 0.0000
v 18.6900 18.9300 0.0000
v 15.0600 18.9300 0.0000
v 15.0600 15.3000 3.0000
v 18.6900 15.3000 3.0000
v 18.6900 18.9300 3.0000
v 15.0600 18.9300 3.0000
v 18.8100 15.3000 0.0000
v 22.4400 15.3000 0.0000
v 22.4400 18.9300 0.0000
v 18.8100 18.9300 0.0000
v 18.8100 15.3000 3.0000
v 22.4400 15.3000 3.0000
v 22.4400 18.9300 3.0000
v 18.8100 18.9300 3.0000
v 22.5600 15.3000 0.0000
v 26.1900 15.3000 0.0000
v 26.1900 18.9300 0.0000
v 22.5600 18.9300 0.0000
v 22.5600 15.3000 3.0000
v 26.1900 15.3000 3.0000
v 26.1900 18.9300 3.0000
v 22.5600 18.9300 3.0000
v 26.3100 15.3000 0.0000
v 29.9400 15.3000 0.0000
v 29.9400 18.9300 0.0000
v 26.3100 18.9300 0.0000
v 26.3100 15.3000 3.0000
v 29.9400 15.3000 3.0000
v 29.9400 18.9300 3.0000
v 26.3100 18.9300 3.0000
v 30.0600 15.3000 0.0000
v 33.6900 15.3000 0.0000
v 33.6900 18.9300 0.0000
v 30.0600 18.9300 0.0000
v 30.0600 15.3000 3.0000
v 33.6900 15.3000 3.0000
v 33.6900 18.9300 3.0000
v 30.0600 18.9300 3.0000
v 33.8100 15.3000 0.0000
v 37.4400 15.3000 0.0000
v 37.4400 18.9300 0.0000
v 33.8100 18.9300 0.0000
v 33.8100 15.3000 3.0000
v 37.4400 15.3000 3.0000
v 37.4400 18.9300 3.0000
v 33.8100 18.9300 3.0000
v 0.0600 22.5500 0.0000
v 3.6900 22.5500 0.0000
v 3.6900 26.1800 0.0000
v 0.0600 26.1800 0.0000
v 0.0600 22.5500 3.0000
v 3.6900 22.5500 3.0000
v 3.6900 26.1800 3.0000
v 0.0600 26.1800 3.0000
v 3.8100 22.5500 0.0000
v 7.4400 22.5500 0.0000
v 7.4400 26.1800 0.0000
v 3.8100 26.1800 0.0000
v 3.8100 22.5500 3.0000
v 7.4400 22.5500 3.0000
v 7.4400 26.1800 3.0000
v 3.8100 26.1800 3.0000
v 7.5600 22.5500 0.0000
v 11.1900 22.5500 0.0000
v 11.1900 26.1800 0.0000
v 7.5600 26.1800 0.0000
v 7.5600 22.5500 3.0000
v 11.1900 22.5500 3.0000
v 11.1900 26.1800 3.0000
v 7.5600 26.1800 3.0000
v 11.3100 22.5500 0.0000
v 14.9400 22.5500 0.0000
v 14.9400 26.1800 0.0000
v 11.3100 26.1800 0.0000
v 11.3100 22.5500 3.0000
v 14.9400 22.5500 3.0000
v 14.9400 26.1800 3.0000
v 11.3100 26.1800 3.0000
v 15.0600 22.5500 0.0000
v 18.6900 22.5500 0.0000
v 18.6900 26.1800 0.0000
v 15.0600 26.1800 0.0000
v 15.0600 22.5500 3.0000
v 18.6900 22.5500 3.0000
v 18.6900 26.1800 3.0000
v 15.0600 26.1800 3.0000
v 18.8100 22.5500 0.0000
v 22.4400 22.5500 0.0000
v 22.4400 26.1800 0.0000
v 18.8100 26.1800 0.0000
v 18.8100 22.5500 3.0000
v 22.4400 22.5500 3.0000
v 22.4400 26.1800 3.0000
v 18.8100 26.1800 3.0000
v 22.5600 22.5500 0.0000
v 26.1900 22.5500 0.0000
v 26.1900 26.1800 0.0000
v 22.5600 26.1800 0.0000
v 22.5600 22.5500 3.0000
v 26.1900 22.5500 3.0000
v 26.1900 26.1800 3.0000
v 22.5600 26.1800 3.0000
v 26.3100 22.5500 0.0000
v 29.9400 22.5500 0.0000
v 29.9400 26.1800 0.0000
v 26.3100 26.1800 0.0000
v 26.3100 22.5500 3.0000
v 29.9400 22.5500 3.0000
v 29.9400 26.1800 3.0000
v 26.3100 26.1800 3.0000
v 30.0600 22.5500 0.0000
v 33.6900 22.5500 0.0000
v 33.6900 26.1800 0.0000
v 30.0600 26.1800 0.0000
v 30.0600 22.5500 3.0000
v 33.6900 22.5500 3.0000
v 33.6900 26.1800 3.0000
v 30.0600 26.1800 3.0000
v 33.8100 22.5500 0.0000
v 37.4400 22.5500 0.0000
v 37.4400 26.1800 0.0000
v 33.8100 26.1800 0.0000
v 33.8100 22.5500 3.0000
v 37.4400 22.5500 3.0000
v 37.4400 26.1800 3.0000
v 33.8100 26.1800 3.0000
v 0.0600 26.3000 0.0000
v 6.9400 26.3000 0.0000
v 6.9400 30.1800 0.0000
v 0.0600 30.1800 0.0000
v 0.0600 26.3000 3.2000
v 6.9400 26.3000 3.2000
v 6.9400 30.1800 3.2000
v 0.0600 30.1800 3.2000
v 7.0600 26.3000 0.0000
v 10.4400 26.3000 0.0000
v 10.4400 30.1800 0.0000
v 7.0600 30.1800 0.0000
v 7.0600 26.3000 3.2000
v 10.4400 26.3000 3.2000
v 10.4400 30.1800 3.2000
v 7.0600 30.1800 3.2000
v 10.5600 26.3000 0.0000
v 12.4400 26.3000 0.0000
v 12.4400 30.1800 0.0000
v 10.5600 30.1800 0.0000
v 10.5600 26.3000 3.2000
v 12.4400 26.3000 3.2000
v 12.4400 30.1800 3.2000
v 10.5600 30.1800 3.2000
v 12.5600 26.3000 0.0000
v 16.4400 26.3000 0.0000
v 16.4400 30.1800 0.0000
v 12.5600 30.1800 0.0000
v 12.5600 26.3000 3.2000
v 16.4400 26.3000 3.2000
v 16.4400 30.1800 3.2000
v 12.5600 30.1800 3.2000
v 16.5600 26.3000 0.0000
v 19.9400 26.3000 0.0000
v 19.9400 30.1800 0.0000
v 16.5600 30.1800 0.0000
v 16.5600 26.3000 3.1000
v 19.9400 26.3000 3.1000
v 19.9400 30.1800 3.1000
v 16.5600 30.1800 3.1000
v 20.0600 26.3000 0.0000
v 23.9400 26.3000 0.0000
v 23.9400 30.1800 0.0000
v 20.0600 30.1800 0.0000
v 20.0600 26.3000 3.1000
v 23.9400 26.3000 3.1000
v 23.9400 30.1800 3.1000
v 20.0600 30.1800 3.1000
v 24.0600 26.3000 0.0000
v 29.9400 26.3000 0.0000
v 29.9400 29.1800 0.0000
v 24.0600 29.1800 0.0000
v 24.0600 26.3000 3.1000
v 29.9400 26.3000 3.1000
v 29.9400 29.1800 3.1000
v 24.0600 29.1800 3.1000
v 30.0600 26.3000 0.0000
v 33.4400 26.3000 0.0000
v 33.4400 30.1800 0.0000
v 30.0600 30.1800 0.0000
v 30.0600 26.3000 3.1000
v 33.4400 26.3000 3.1000
v 33.4400 30.1800 3.1000
v 30.0600 30.1800 3.1000
v 33.5600 26.3000 0.0000
v 37.4400 26.3000 0.0000
v 37.4400 30.1800 0.0000
v 33.5600 30.1800 0.0000
v 33.5600 26.3000 3.2000
v 37.4400 26.3000 3.2000
v 37.4400 30.1800 3.2000
v 33.5600 30.1800 3.2000
v 2.0600 5.0600 0.0000
v 9.9400 5.0600 0.0000
v 9.9400 13.1800 0.0000
v 2.0600 13.1800 0.0000
v 2.0600 5.0600 4.3000
v 9.9400 5.0600 4.3000
v 9.9400 13.1800 4.3000
v 2.0600 13.1800 4.3000
v 10.0600 5.0600 0.0000
v 11.7000 5.0600 0.0000
v 11.7000 6.7000 0.0000
v 10.0600 6.7000 0.0000
v 10.0600 5.0600 3.0000
v 11.7000 5.0600 3.0000
v 11.7000 6.7000 3.0000
v 10.0600 6.7000 3.0000
v 12.5600 5.0600 0.0000
v 20.4400 5.0600 0.0000
v 20.4400 13.1800 0.0000
v 12.5600 13.1800 0.0000
v 12.5600 5.0600 0.1500
v 20.4400 5.0600 0.1500
v 20.4400 13.1800 0.1500
v 12.5600 13.1800 0.1500
v 22.5600 5.0600 0.0000
v 27.2700 5.0600 0.0000
v 27.2700 8.7000 0.0000
v 22.5600 8.7000 0.0000
v 22.5600 5.0600 3.4000
v 27.2700 5.0600 3.4000
v 27.2700 8.7000 3.4000
v 22.5600 8.7000 3.4000
v 22.5600 8.8200 0.0000
v 27.2700 8.8200 0.0000
v 27.2700 10.7000 0.0000
v 22.5600 10.7000 0.0000
v 22.5600 8.8200 3.0000
v 27.2700 8.8200 3.0000
v 27.2700 10.7000 3.0000
v 22.5600 10.7000 3.0000
v 26.0000 0.5000 0.0000
v 37.0000 0.5000 0.0000
v 37.0000 4.5000 0.0000
v 26.0000 4.5000 0.0000
v 0.0000 31.2400 0.0000
v 17.0000 31.2400 0.0000
v 17.0000 50.0000 0.0000
v 0.0000 50.0000 0.0000
v 20.5000 31.2400 0.0000
v 37.5000 31.2400 0.0000
v 37.5000 50.0000 0.0000
v 20.5000 50.0000 0.0000
v 17.0000 31.2400 0.0000
v 20.5000 31.2400 0.0000
v 20.5000 50.0000 0.0000
v 17.0000 50.0000 0.0000
v 37.5000 0.0000 0.0000
v 40.0000 0.0000 0.0000
v 40.0000 50.0000 0.0000
v 37.5000 50.0000 0.0000
v 0.0000 0.0000 0.0000
v 37.5000 0.0000 0.0000
v 37.5000 5.0000 0.0000
v 0.0000 5.0000 0.0000

o site_ground_pad
usemtl ground_pad
f 1 2 3 4
o S01_horse_stall
usemtl stall_timber_front
f 5 6 10 9
f 6 7 11 10
f 7 8 12 11
f 8 5 9 12
usemtl roof_metal
f 9 10 11 12
o S02_horse_stall
usemtl stall_timber_front
f 13 14 18 17
f 14 15 19 18
f 15 16 20 19
f 16 13 17 20
usemtl roof_metal
f 17 18 19 20
o S03_horse_stall
usemtl stall_timber_front
f 21 22 26 25
f 22 23 27 26
f 23 24 28 27
f 24 21 25 28
usemtl roof_metal
f 25 26 27 28
o S04_horse_stall
usemtl stall_timber_front
f 29 30 34 33
f 30 31 35 34
f 31 32 36 35
f 32 29 33 36
usemtl roof_metal
f 33 34 35 36
o S05_horse_stall
usemtl stall_timber_front
f 37 38 42 41
f 38 39 43 42
f 39 40 44 43
f 40 37 41 44
usemtl roof_metal
f 41 42 43 44
o S06_horse_stall
usemtl stall_timber_front
f 45 46 50 49
f 46 47 51 50
f 47 48 52 51
f 48 45 49 52
usemtl roof_metal
f 49 50 51 52
o S07_horse_stall
usemtl stall_timber_front
f 53 54 58 57
f 54 55 59 58
f 55 56 60 59
f 56 53 57 60
usemtl roof_metal
f 57 58 59 60
o S08_horse_stall
usemtl stall_timber_front
f 61 62 66 65
f 62 63 67 66
f 63 64 68 67
f 64 61 65 68
usemtl roof_metal
f 65 66 67 68
o S09_horse_stall
usemtl stall_timber_front
f 69 70 74 73
f 70 71 75 74
f 71 72 76 75
f 72 69 73 76
usemtl roof_metal
f 73 74 75 76
o S10_horse_stall
usemtl stall_timber_front
f 77 78 82 81
f 78 79 83 82
f 79 80 84 83
f 80 77 81 84
usemtl roof_metal
f 81 82 83 84
o S11_horse_stall
usemtl stall_timber_front
f 85 86 90 89
f 86 87 91 90
f 87 88 92 91
f 88 85 89 92
usemtl roof_metal
f 89 90 91 92
o S12_horse_stall
usemtl stall_timber_front
f 93 94 98 97
f 94 95 99 98
f 95 96 100 99
f 96 93 97 100
usemtl roof_metal
f 97 98 99 100
o S13_horse_stall
usemtl stall_timber_front
f 101 102 106 105
f 102 103 107 106
f 103 104 108 107
f 104 101 105 108
usemtl roof_metal
f 105 106 107 108
o S14_horse_stall
usemtl stall_timber_front
f 109 110 114 113
f 110 111 115 114
f 111 112 116 115
f 112 109 113 116
usemtl roof_metal
f 113 114 115 116
o S15_horse_stall
usemtl stall_timber_front
f 117 118 122 121
f 118 119 123 122
f 119 120 124 123
f 120 117 121 124
usemtl roof_metal
f 121 122 123 124
o S16_horse_stall
usemtl stall_timber_front
f 125 126 130 129
f 126 127 131 130
f 127 128 132 131
f 128 125 129 132
usemtl roof_metal
f 129 130 131 132
o S17_horse_stall
usemtl stall_timber_front
f 133 134 138 137
f 134 135 139 138
f 135 136 140 139
f 136 133 137 140
usemtl roof_metal
f 137 138 139 140
o S18_horse_stall
usemtl stall_timber_front
f 141 142 146 145
f 142 143 147 146
f 143 144 148 147
f 144 141 145 148
usemtl roof_metal
f 145 146 147 148
o S19_horse_stall
usemtl stall_timber_front
f 149 150 154 153
f 150 151 155 154
f 151 152 156 155
f 152 149 153 156
usemtl roof_metal
f 153 154 155 156
o S20_horse_stall
usemtl stall_timber_front
f 157 158 162 161
f 158 159 163 162
f 159 160 164 163
f 160 157 161 164
usemtl roof_metal
f 161 162 163 164
o WB01_worker_bedroom
usemtl wall_plaster_warm
f 165 166 170 169
f 166 167 171 170
f 167 168 172 171
f 168 165 169 172
usemtl roof_metal
f 169 170 171 172
o WK01_worker_kitchen
usemtl wall_plaster_warm
f 173 174 178 177
f 174 175 179 178
f 175 176 180 179
f 176 173 177 180
usemtl roof_metal
f 177 178 179 180
o WBTH01_worker_bathroom
usemtl wall_plaster_warm
f 181 182 186 185
f 182 183 187 186
f 183 184 188 187
f 184 181 185 188
usemtl roof_metal
f 185 186 187 188
o P01_premium_horse_stall
usemtl stall_timber_front
f 189 190 194 193
f 190 191 195 194
f 191 192 196 195
f 192 189 193 196
usemtl roof_metal
f 193 194 195 196
o SP01_veterinary_isolation_room
usemtl wall_plaster_warm
f 197 198 202 201
f 198 199 203 202
f 199 200 204 203
f 200 197 201 204
usemtl roof_metal
f 201 202 203 204
o FD01_feed_room
usemtl wall_plaster_warm
f 205 206 210 209
f 206 207 211 210
f 207 208 212 211
f 208 205 209 212
usemtl roof_metal
f 209 210 211 212
o SV01_service_room
usemtl wall_plaster_warm
f 213 214 218 217
f 214 215 219 218
f 215 216 220 219
f 216 213 217 220
usemtl roof_metal
f 217 218 219 220
o SP02_veterinary_isolation_room
usemtl wall_plaster_warm
f 221 222 226 225
f 222 223 227 226
f 223 224 228 227
f 224 221 225 228
usemtl roof_metal
f 225 226 227 228
o P02_premium_horse_stall
usemtl stall_timber_front
f 229 230 234 233
f 230 231 235 234
f 231 232 236 235
f 232 229 233 236
usemtl roof_metal
f 233 234 235 236
o MJ01_majlis
usemtl wall_plaster_feature
f 237 238 242 241
f 238 239 243 242
f 239 240 244 243
f 240 237 241 244
usemtl roof_metal
f 241 242 243 244
o MWC01_mens_wc
usemtl wall_plaster_warm
f 245 246 250 249
f 246 247 251 250
f 247 248 252 251
f 248 245 249 252
usemtl roof_metal
f 249 250 251 252
o OSA01_outdoor_sitting
usemtl terrace_stone
f 253 254 258 257
f 254 255 259 258
f 255 256 260 259
f 256 253 257 260
usemtl roof_metal
f 257 258 259 260
o PBR01_private_bedroom
usemtl wall_plaster_feature
f 261 262 266 265
f 262 263 267 266
f 263 264 268 267
f 264 261 265 268
usemtl roof_metal
f 265 266 267 268
o PBTH01_private_bathroom
usemtl wall_plaster_warm
f 269 270 274 273
f 270 271 275 274
f 271 272 276 275
f 272 269 273 276
usemtl roof_metal
f 273 274 275 276
o PK01_parking
usemtl paving_stone
f 277 278 279 280
o PD01_paddock
usemtl sand_paddock
f 281 282 283 284
o PD02_paddock
usemtl sand_paddock
f 285 286 287 288
o WSY01_service_yard
usemtl paving_service
f 289 290 291 292
o FL01_service_lane
usemtl paving_service
f 293 294 295 296
o MC01_arrival_court
usemtl paving_stone
f 297 298 299 300
